<?xml version="1.0" encoding="UTF-8"?>
<svg id="Layer_1" data-name="Layer 1" xmlns="http://www.w3.org/2000/svg" viewBox="0 0 70 70">
  <defs>
    <style>
      .cls-1, .cls-2 {
        fill: none;
        stroke: #231f20;
        stroke-miterlimit: 10;
      }

      .cls-3 {
        fill: #e4c48f;
      }

      .cls-4 {
        fill: #231f20;
      }

      .cls-2 {
        stroke-width: .75px;
      }
    </style>
  </defs>
  <circle class="cls-3" cx="35" cy="35" r="35"/>
  <circle class="cls-1" cx="35" cy="35" r="31.5"/>
  <g id="spoon">
    <path class="cls-2" d="m32.39,32.99l3.52.25-5.13-8.91c-.12-.1-1.25-1.04-2.33-1.11-.11,0-1.1-.06-1.19.87,1.71,2.97,3.42,5.94,5.13,8.91Z"/>
    <path class="cls-2" d="m33.27,33.05l4.56,7.92c-.31.19-1.22.84-1.07,2.54.14,1.57,1.11,3.11,1.48,3.67.23.42,1.35,2.35,3.6,4.05,1.86,1.41,3.38,1.82,3.86,1.94.4-.06,1.71-.31,1.94-1.76.22-1.39-.7-3.02-1.18-3.88-.41-.73-1.44-2.53-3.52-4.29-1.42-1.2-2.69-1.84-3.34-2.14l-4.42-7.67"/>
  </g>
  <g id="fork">
    <path class="cls-1" d="m35.67,32.74l3.75-.03c1.64-2.85,3.28-5.69,4.93-8.54-.02-.09-.18-.94-1.33-.94-.12,0-1.2.03-2.42.96l-4.93,8.54Z"/>
    <path class="cls-1" d="m36.61,32.73l-4.24,7.35c-.3.02-1.16.1-2.28.72-1.43.8-2.23,1.9-2.4,2.14l-4.65,8.06c-.35.59-.1,1.01.39.94.42-.05.99-.46,1.25-.95l2.33-4.03c.29-.38.74-.67,1.11-.72.45-.06.7.24.53.7l-2.33,4.03c-.38.52-.23.95.16.94s1.03-.43,1.25-.95l2.33-4.03c.32-.59,1.07-1.01,1.48-.96.36.05.46.45.16.94l-2.33,4.03c-.31.49-.2.89.16.94.42.06,1.16-.37,1.48-.96,1.55-2.69,3.1-5.38,4.65-8.06.11-.25.57-1.34.06-2.13-.4-.62-1.18-.69-1.46-.7,1.41-2.45,2.83-4.9,4.24-7.35"/>
  </g>
  <polygon class="cls-4" points="36.13 11.5 35.03 10.93 33.97 11.55 34.14 10.29 33.25 9.42 34.46 9.21 34.97 8.05 35.54 9.18 36.75 9.34 35.89 10.25 36.13 11.5"/>
  <polygon class="cls-4" points="48.03 14.65 46.93 14.08 45.87 14.7 46.04 13.44 45.15 12.57 46.36 12.36 46.87 11.2 47.44 12.33 48.65 12.49 47.79 13.4 48.03 14.65"/>
  <polygon class="cls-4" points="24.14 14.78 23.05 14.21 21.98 14.83 22.16 13.57 21.27 12.7 22.47 12.48 22.99 11.33 23.55 12.46 24.77 12.61 23.91 13.52 24.14 14.78"/>
  <path class="cls-4" d="m14.52,46.65c2.19,6.6,7.4,11.88,14.04,14.02s14.3.82,19.91-3.53c3.16-2.45,5.55-5.72,7-9.44.14-.36-.14-.89,0-1.25-2.56,6.55-8.13,11.6-14.97,13.34s-14.26-.05-19.57-4.69c-2.98-2.6-5.16-5.96-6.41-9.7.12.37-.13.87,0,1.25h0Z"/>
</svg>