<?xml version="1.0" encoding="UTF-8"?>
<svg id="Layer_1" data-name="Layer 1" xmlns="http://www.w3.org/2000/svg" viewBox="0 0 293.09 76.38">
  <defs>
    <style>
      .cls-1, .cls-2 {
        fill: none;
        stroke: #231f20;
        stroke-miterlimit: 10;
      }

      .cls-3 {
        letter-spacing: .29em;
      }

      .cls-4 {
        letter-spacing: .3em;
      }

      .cls-5 {
        fill: #fff;
        font-family: Algerian, Algerian;
        font-size: 58.61px;
      }

      .cls-6, .cls-7 {
        fill: #e4c48f;
      }

      .cls-8 {
        letter-spacing: .28em;
      }

      .cls-9 {
        letter-spacing: .29em;
      }

      .cls-10 {
        letter-spacing: .23em;
      }

      .cls-7 {
        font-family: SourceSerifVariable-Roman, 'Source Serif Variable';
        font-size: 20px;
        font-variation-settings: 'wght' 389;
      }

      .cls-11 {
        letter-spacing: .31em;
      }

      .cls-12 {
        fill: #231f20;
      }

      .cls-13 {
        letter-spacing: .28em;
      }

      .cls-2 {
        stroke-width: .75px;
      }
    </style>
  </defs>
  <circle class="cls-6" cx="35" cy="41.38" r="35"/>
  <circle class="cls-1" cx="35" cy="41.38" r="31.5"/>
  <g id="spoon">
    <path class="cls-2" d="m32.39,39.37l3.52.25-5.13-8.91c-.12-.1-1.25-1.04-2.33-1.11-.11,0-1.1-.06-1.19.87,1.71,2.97,3.42,5.94,5.13,8.91Z"/>
    <path class="cls-2" d="m33.27,39.43l4.56,7.92c-.31.19-1.22.84-1.07,2.54.14,1.57,1.11,3.11,1.48,3.67.23.42,1.35,2.35,3.6,4.05,1.86,1.41,3.38,1.82,3.86,1.94.4-.06,1.71-.31,1.94-1.76.22-1.39-.7-3.02-1.18-3.88-.41-.73-1.44-2.53-3.52-4.29-1.42-1.2-2.69-1.84-3.34-2.14l-4.42-7.67"/>
  </g>
  <g id="fork">
    <path class="cls-1" d="m35.67,39.12l3.75-.03c1.64-2.85,3.28-5.69,4.93-8.54-.02-.09-.18-.94-1.33-.94-.12,0-1.2.03-2.42.96l-4.93,8.54Z"/>
    <path class="cls-1" d="m36.61,39.11l-4.24,7.35c-.3.02-1.16.1-2.28.72-1.43.8-2.23,1.9-2.4,2.14l-4.65,8.06c-.35.59-.1,1.01.39.94.42-.05.99-.46,1.25-.95l2.33-4.03c.29-.38.74-.67,1.11-.72.45-.06.7.24.53.7l-2.33,4.03c-.38.52-.23.95.16.94s1.03-.43,1.25-.95l2.33-4.03c.32-.59,1.07-1.01,1.48-.96.36.05.46.45.16.94l-2.33,4.03c-.31.49-.2.89.16.94.42.06,1.16-.37,1.48-.96,1.55-2.69,3.1-5.38,4.65-8.06.11-.25.57-1.34.06-2.13-.4-.62-1.18-.69-1.46-.7,1.41-2.45,2.83-4.9,4.24-7.35"/>
  </g>
  <polygon class="cls-12" points="36.13 17.88 35.03 17.31 33.97 17.93 34.14 16.67 33.25 15.8 34.46 15.58 34.97 14.43 35.54 15.56 36.75 15.71 35.89 16.62 36.13 17.88"/>
  <polygon class="cls-12" points="48.03 21.03 46.93 20.46 45.87 21.08 46.04 19.82 45.15 18.95 46.36 18.73 46.87 17.58 47.44 18.71 48.65 18.86 47.79 19.77 48.03 21.03"/>
  <polygon class="cls-12" points="24.14 21.15 23.05 20.59 21.98 21.2 22.16 19.94 21.27 19.07 22.47 18.86 22.99 17.7 23.55 18.84 24.77 18.99 23.91 19.9 24.14 21.15"/>
  <path class="cls-12" d="m14.52,53.03c2.19,6.6,7.4,11.88,14.04,14.02s14.3.82,19.91-3.53c3.16-2.45,5.55-5.72,7-9.44.14-.36-.14-.89,0-1.25-2.56,6.55-8.13,11.6-14.97,13.34s-14.26-.05-19.57-4.69c-2.98-2.6-5.16-5.96-6.41-9.7.12.37-.13.87,0,1.25h0Z"/>
  <text class="cls-5" transform="translate(80.92 48.85)"><tspan x="0" y="0">PUTJAS</tspan></text>
  <text class="cls-7" transform="translate(94.4 69.3)"><tspan class="cls-4" x="0" y="0">RE</tspan><tspan class="cls-3" x="37.06" y="0">S</tspan><tspan class="cls-10" x="53.06" y="0">TA</tspan><tspan class="cls-13" x="87.56" y="0">U</tspan><tspan class="cls-11" x="107.7" y="0">R</tspan><tspan class="cls-9" x="126.88" y="0">A</tspan><tspan class="cls-4" x="145.94" y="0">N</tspan><tspan class="cls-8" x="166.64" y="0">T</tspan></text>
</svg>