<?xml version="1.0" encoding="UTF-8"?>
<svg id="Layer_1" data-name="Layer 1" xmlns="http://www.w3.org/2000/svg" viewBox="0 0 250 350">
  <defs>
    <style>
      .cls-1, .cls-2 {
        fill: none;
        stroke: #231f20;
        stroke-miterlimit: 10;
      }

      .cls-2 {
        stroke-width: 2px;
      }

      .cls-3 {
        font-family: CalifornianFB-Reg, 'Californian FB';
        font-size: 15.07px;
        letter-spacing: .52em;
      }

      .cls-3, .cls-4 {
        fill: #e4c48f;
      }

      .cls-5 {
        fill: #fff;
        font-family: Algerian, Algerian;
        font-size: 58.61px;
      }

      .cls-6 {
        fill: #231f20;
      }
    </style>
  </defs>
  <ellipse class="cls-4" cx="125" cy="125.6" rx="125" ry="125.6"/>
  <ellipse class="cls-2" cx="125" cy="125.6" rx="112.5" ry="113.04"/>
  <g id="spoon">
    <path class="cls-1" d="m115.68,118.38c4.19.3,8.38.6,12.57.9-6.11-10.66-12.22-21.31-18.33-31.97-.44-.37-4.47-3.73-8.32-4-.39-.03-3.93-.21-4.25,3.1,6.11,10.66,12.22,21.31,18.33,31.97Z"/>
    <path class="cls-1" d="m118.82,118.61c5.43,9.47,10.86,18.95,16.29,28.42-1.12.68-4.37,3.01-3.82,9.1.5,5.62,3.95,11.15,5.28,13.15.84,1.5,4.82,8.42,12.86,14.55,6.64,5.06,12.06,6.54,13.77,6.94,1.44-.2,6.11-1.11,6.92-6.32.78-5-2.49-10.84-4.22-13.93-1.47-2.62-5.15-9.06-12.58-15.38-5.08-4.31-9.59-6.61-11.93-7.66-5.26-9.18-10.52-18.35-15.78-27.53"/>
  </g>
  <g id="fork">
    <path class="cls-2" d="m127.39,117.48l13.39-.09c5.87-10.21,11.73-20.42,17.6-30.64-.06-.34-.64-3.39-4.74-3.36-.42,0-4.27.1-8.65,3.45-5.87,10.21-11.73,20.42-17.6,30.64Z"/>
    <path class="cls-2" d="m130.74,117.46c-5.05,8.79-10.1,17.59-15.15,26.38-1.07.06-4.16.35-8.16,2.6-5.1,2.86-7.96,6.81-8.58,7.69-5.54,9.64-11.08,19.29-16.62,28.93-1.26,2.11-.36,3.61,1.39,3.38,1.5-.2,3.54-1.66,4.47-3.42,2.77-4.82,5.54-9.64,8.31-14.47,1.03-1.35,2.65-2.39,3.98-2.57,1.6-.22,2.5.86,1.88,2.53-2.77,4.82-5.54,9.64-8.31,14.47-1.36,1.88-.82,3.4.55,3.39s3.66-1.54,4.47-3.42c2.77-4.82,5.54-9.64,8.31-14.47,1.16-2.11,3.8-3.64,5.3-3.43,1.28.18,1.66,1.62.55,3.39-2.77,4.82-5.54,9.64-8.31,14.47-1.1,1.76-.73,3.21.55,3.39,1.5.21,4.14-1.32,5.3-3.43,5.54-9.64,11.08-19.29,16.62-28.93.39-.88,2.05-4.82.22-7.63-1.44-2.21-4.21-2.47-5.23-2.51,5.05-8.79,10.1-17.59,15.15-26.38"/>
  </g>
  <polygon class="cls-6" points="129.03 41.26 125.12 39.23 121.31 41.45 121.94 36.92 118.75 33.8 123.05 33.04 124.9 28.89 126.92 32.95 131.25 33.5 128.19 36.77 129.03 41.26"/>
  <polygon class="cls-6" points="171.53 52.57 167.62 50.53 163.81 52.75 164.44 48.22 161.25 45.1 165.55 44.34 167.4 40.19 169.42 44.25 173.75 44.8 170.69 48.07 171.53 52.57"/>
  <polygon class="cls-6" points="86.23 53.02 82.32 50.98 78.51 53.21 79.15 48.68 75.95 45.56 80.25 44.8 82.1 40.65 84.12 44.7 88.45 45.26 85.4 48.53 86.23 53.02"/>
  <path class="cls-6" d="m51.88,166.41c3.87,11.91,10.54,22.82,19.45,31.63s19.52,15.17,31.24,18.87c12.02,3.79,24.93,4.56,37.32,2.22,12.18-2.31,23.74-7.6,33.48-15.25s17.79-17.87,22.94-29.31c.65-1.44,1.25-2.9,1.82-4.38.28-.73-.28-1.78,0-2.5-4.5,11.79-11.8,22.41-21.26,30.78-9.27,8.2-20.49,14.15-32.49,17.18s-25.18,3.09-37.42.01-23.09-8.9-32.32-17.03-16.66-18.67-21.18-30.27c-.57-1.46-1.09-2.94-1.57-4.43.24.75-.25,1.74,0,2.5h0Z"/>
  <text class="cls-5" transform="translate(18.91 317.07)"><tspan x="0" y="0">PUTJAS</tspan></text>
  <text class="cls-3" transform="translate(39.8 341.92)"><tspan x="0" y="0">RESTAURANT</tspan></text>
</svg>