<?xml version="1.0" encoding="UTF-8"?>
<svg id="Layer_1" data-name="Layer 1" xmlns="http://www.w3.org/2000/svg" viewBox="0 0 50 80">
  <defs>
    <style>
      .cls-1, .cls-2 {
        fill: none;
        stroke: #231f20;
        stroke-miterlimit: 10;
      }

      .cls-3 {
        fill: #fff;
        font-family: Algerian, Algerian;
        font-size: 13.4px;
      }

      .cls-2 {
        stroke-width: 2px;
      }

      .cls-4 {
        font-family: CalifornianFB-Reg, 'Californian FB';
        font-size: 3.44px;
        letter-spacing: .52em;
      }

      .cls-4, .cls-5 {
        fill: #e4c48f;
      }

      .cls-6 {
        fill: #231f20;
      }
    </style>
  </defs>
  <ellipse class="cls-5" cx="25" cy="28.71" rx="25" ry="28.71"/>
  <ellipse class="cls-2" cx="25" cy="28.71" rx="22.5" ry="25.84"/>
  <g id="spoon">
    <path class="cls-1" d="m23.14,27.06l2.51.2-3.67-7.31c-.09-.08-.89-.85-1.66-.91-.08,0-.79-.05-.85.71,1.22,2.44,2.44,4.87,3.67,7.31Z"/>
    <path class="cls-1" d="m23.76,27.11l3.26,6.5c-.22.15-.87.69-.76,2.08.1,1.28.79,2.55,1.06,3.01.17.34.96,1.92,2.57,3.32,1.33,1.16,2.41,1.49,2.75,1.59.29-.05,1.22-.25,1.38-1.44.16-1.14-.5-2.48-.84-3.18-.29-.6-1.03-2.07-2.52-3.51-1.02-.99-1.92-1.51-2.39-1.75l-3.16-6.29"/>
  </g>
  <g id="fork">
    <path class="cls-2" d="m25.48,26.85l2.68-.02,3.52-7c-.01-.08-.13-.77-.95-.77-.08,0-.85.02-1.73.79l-3.52,7Z"/>
    <path class="cls-2" d="m26.15,26.85l-3.03,6.03c-.21.01-.83.08-1.63.59-1.02.65-1.59,1.56-1.72,1.76l-3.32,6.61c-.25.48-.07.83.28.77.3-.05.71-.38.89-.78l1.66-3.31c.21-.31.53-.55.8-.59.32-.05.5.2.38.58l-1.66,3.31c-.27.43-.16.78.11.77s.73-.35.89-.78l1.66-3.31c.23-.48.76-.83,1.06-.78.26.04.33.37.11.77l-1.66,3.31c-.22.4-.15.73.11.77.3.05.83-.3,1.06-.78l3.32-6.61c.08-.2.41-1.1.04-1.74-.29-.5-.84-.56-1.05-.57l3.03-6.03"/>
  </g>
  <polygon class="cls-6" points="25.81 9.43 25.02 8.97 24.26 9.47 24.39 8.44 23.75 7.73 24.61 7.55 24.98 6.6 25.38 7.53 26.25 7.66 25.64 8.4 25.81 9.43"/>
  <polygon class="cls-6" points="34.31 12.02 33.52 11.55 32.76 12.06 32.89 11.02 32.25 10.31 33.11 10.14 33.48 9.19 33.88 10.11 34.75 10.24 34.14 10.99 34.31 12.02"/>
  <polygon class="cls-6" points="17.25 12.12 16.46 11.65 15.7 12.16 15.83 11.13 15.19 10.41 16.05 10.24 16.42 9.29 16.82 10.22 17.69 10.35 17.08 11.09 17.25 12.12"/>
  <path class="cls-6" d="m10.38,39c1.89,6.46,7.21,12.08,14.25,12.34s12.8-5.07,15-11.48c.26-.75-.25-1.76,0-2.5-2.2,6.42-7.9,11.75-15,11.48s-12.36-5.89-14.25-12.34c.22.76-.23,1.73,0,2.5h0Z"/>
  <text class="cls-3" transform="translate(3.78 72.47) scale(.87 1)"><tspan x="0" y="0">PUTJAS</tspan></text>
  <text class="cls-4" transform="translate(7.96 78.15) scale(.87 1)"><tspan x="0" y="0">RESTAURANT</tspan></text>
</svg>